<svg width="100%" height="100%" viewBox="0 0 4500 400" fill="none" xmlns="http://www.w3.org/2000/svg">
<g clip-path="url(#clip0_67_154)">
<path d="M600 0L750 199L600 400H0L150 199L0 0H600Z" fill="#333344"/>
<path d="M750 0L900 199L750 400H150L300 199L150 0H750Z" fill="#484880"/>
<path d="M371.719 129.142C371.719 131.485 371.279 133.814 370.4 136.129C369.521 138.414 368.159 140.465 366.313 142.281C364.468 144.098 362.109 145.577 359.238 146.72C356.367 147.833 352.939 148.39 348.955 148.39H341.836V169H334.014V111.563H350.186C353.027 111.563 355.752 111.886 358.359 112.53C360.967 113.146 363.252 114.156 365.215 115.562C367.207 116.969 368.789 118.785 369.961 121.012C371.133 123.238 371.719 125.948 371.719 129.142ZM363.589 129.493C363.589 125.802 362.373 122.975 359.941 121.012C357.539 119.049 354.17 118.067 349.834 118.067H341.836V141.71H349.131C353.76 141.71 357.319 140.699 359.81 138.678C362.329 136.656 363.589 133.595 363.589 129.493ZM414.873 169V124.879H422.432V169H414.873ZM402.129 155.465C402.129 153.15 401.396 151.363 399.932 150.104C398.496 148.814 396.196 148.17 393.032 148.17C392.183 148.17 391.318 148.185 390.439 148.214C389.561 148.243 388.652 148.287 387.715 148.346V162.848C388.652 162.994 389.546 163.097 390.396 163.155C391.245 163.185 392.095 163.199 392.944 163.199C394.731 163.199 396.211 162.994 397.383 162.584C398.555 162.145 399.478 161.573 400.151 160.87C400.854 160.167 401.353 159.347 401.646 158.409C401.968 157.472 402.129 156.49 402.129 155.465ZM387.715 141.93C388.77 141.9 389.751 141.886 390.659 141.886C391.597 141.856 392.563 141.842 393.56 141.842C396.313 141.842 398.716 142.179 400.767 142.853C402.847 143.497 404.575 144.42 405.952 145.621C407.329 146.793 408.354 148.214 409.028 149.884C409.702 151.524 410.039 153.312 410.039 155.245C410.039 157.589 409.644 159.654 408.853 161.441C408.062 163.199 406.934 164.679 405.469 165.88C404.004 167.081 402.202 167.989 400.063 168.604C397.954 169.22 395.435 169.527 392.505 169.527C390.63 169.527 388.638 169.469 386.528 169.352C384.448 169.264 382.324 169.059 380.156 168.736V124.879H387.715V141.93ZM468.53 169H460.884V149.488H440.713V169H433.066V124.879H440.713V142.809H460.884V124.879H468.53V169ZM520.957 146.588C520.957 150.016 520.474 153.165 519.507 156.036C518.54 158.878 517.148 161.324 515.332 163.375C513.516 165.396 511.304 166.979 508.696 168.121C506.089 169.234 503.13 169.791 499.819 169.791C496.655 169.791 493.813 169.308 491.294 168.341C488.804 167.345 486.68 165.895 484.922 163.99C483.193 162.086 481.86 159.728 480.923 156.915C480.015 154.103 479.561 150.865 479.561 147.203C479.561 143.775 480.044 140.655 481.011 137.843C481.978 135.001 483.369 132.569 485.186 130.548C487.002 128.497 489.214 126.915 491.821 125.802C494.429 124.659 497.388 124.088 500.698 124.088C503.862 124.088 506.689 124.586 509.18 125.582C511.699 126.549 513.823 127.984 515.552 129.889C517.31 131.764 518.643 134.107 519.551 136.92C520.488 139.732 520.957 142.955 520.957 146.588ZM513.135 146.939C513.135 144.215 512.827 141.842 512.212 139.82C511.626 137.77 510.776 136.07 509.663 134.723C508.55 133.346 507.188 132.32 505.576 131.646C503.994 130.943 502.222 130.592 500.259 130.592C497.974 130.592 496.011 131.046 494.37 131.954C492.759 132.833 491.426 134.02 490.371 135.514C489.346 137.008 488.584 138.751 488.086 140.743C487.617 142.706 487.383 144.771 487.383 146.939C487.383 149.664 487.676 152.052 488.262 154.103C488.877 156.153 489.741 157.867 490.854 159.244C491.968 160.592 493.315 161.617 494.897 162.32C496.479 162.994 498.267 163.331 500.259 163.331C502.544 163.331 504.492 162.892 506.104 162.013C507.744 161.104 509.077 159.903 510.103 158.409C511.157 156.915 511.919 155.187 512.388 153.224C512.886 151.231 513.135 149.137 513.135 146.939ZM559.849 151.905H550.752C543.926 151.905 538.916 150.631 535.723 148.082C532.529 145.533 530.933 141.827 530.933 136.964V124.879H538.667V135.953C538.667 137.711 538.901 139.19 539.37 140.392C539.839 141.593 540.586 142.574 541.611 143.336C542.666 144.068 543.999 144.596 545.61 144.918C547.251 145.24 549.229 145.401 551.543 145.401H559.849V124.879H567.495V169H559.849V151.905ZM616.978 169H609.331V149.488H589.16V169H581.514V124.879H589.16V142.809H609.331V124.879H616.978V169ZM662.285 169V124.879H669.844V169H662.285ZM649.541 155.465C649.541 153.15 648.809 151.363 647.344 150.104C645.908 148.814 643.608 148.17 640.444 148.17C639.595 148.17 638.73 148.185 637.852 148.214C636.973 148.243 636.064 148.287 635.127 148.346V162.848C636.064 162.994 636.958 163.097 637.808 163.155C638.657 163.185 639.507 163.199 640.356 163.199C642.144 163.199 643.623 162.994 644.795 162.584C645.967 162.145 646.89 161.573 647.563 160.87C648.267 160.167 648.765 159.347 649.058 158.409C649.38 157.472 649.541 156.49 649.541 155.465ZM635.127 141.93C636.182 141.9 637.163 141.886 638.071 141.886C639.009 141.856 639.976 141.842 640.972 141.842C643.726 141.842 646.128 142.179 648.179 142.853C650.259 143.497 651.987 144.42 653.364 145.621C654.741 146.793 655.767 148.214 656.44 149.884C657.114 151.524 657.451 153.312 657.451 155.245C657.451 157.589 657.056 159.654 656.265 161.441C655.474 163.199 654.346 164.679 652.881 165.88C651.416 167.081 649.614 167.989 647.476 168.604C645.366 169.22 642.847 169.527 639.917 169.527C638.042 169.527 636.05 169.469 633.94 169.352C631.86 169.264 629.736 169.059 627.568 168.736V124.879H635.127V141.93ZM717.744 144.61C717.744 145.694 717.729 146.603 717.7 147.335C717.671 148.067 717.627 148.756 717.568 149.4H686.587C686.587 153.912 687.847 157.384 690.366 159.815C692.886 162.218 696.519 163.419 701.265 163.419C702.554 163.419 703.843 163.375 705.132 163.287C706.421 163.17 707.666 163.023 708.867 162.848C710.068 162.672 711.211 162.481 712.295 162.276C713.408 162.042 714.434 161.793 715.371 161.529V167.813C713.291 168.399 710.933 168.868 708.296 169.22C705.688 169.601 702.979 169.791 700.166 169.791C696.387 169.791 693.135 169.278 690.41 168.253C687.686 167.228 685.444 165.748 683.687 163.814C681.958 161.852 680.669 159.464 679.819 156.651C678.999 153.81 678.589 150.602 678.589 147.027C678.589 143.922 679.028 140.992 679.907 138.238C680.815 135.455 682.119 133.023 683.818 130.943C685.547 128.834 687.656 127.164 690.146 125.934C692.637 124.703 695.464 124.088 698.628 124.088C701.704 124.088 704.429 124.571 706.802 125.538C709.175 126.505 711.167 127.882 712.778 129.669C714.419 131.427 715.649 133.58 716.47 136.129C717.319 138.648 717.744 141.476 717.744 144.61ZM709.79 143.512C709.878 141.549 709.688 139.762 709.219 138.15C708.75 136.51 708.018 135.104 707.021 133.932C706.055 132.76 704.839 131.852 703.374 131.207C701.909 130.533 700.21 130.196 698.276 130.196C696.606 130.196 695.083 130.519 693.706 131.163C692.329 131.808 691.143 132.716 690.146 133.888C689.15 135.06 688.345 136.466 687.729 138.106C687.114 139.747 686.733 141.549 686.587 143.512H709.79ZM410.566 236.471H398.262C397.969 241.51 397.588 245.802 397.119 249.347C396.65 252.892 396.094 255.865 395.449 258.268C394.834 260.67 394.116 262.589 393.296 264.024C392.476 265.46 391.567 266.588 390.571 267.408H410.566V236.471ZM424.541 267.408L424.058 285.25H417.07V274H384.902V285.25H378.003L377.563 267.408H378.179C379.292 267.408 380.347 267.232 381.343 266.881C382.339 266.529 383.262 265.87 384.111 264.903C384.961 263.907 385.737 262.545 386.44 260.816C387.173 259.059 387.817 256.803 388.374 254.049C388.96 251.266 389.458 247.896 389.868 243.941C390.308 239.986 390.674 235.299 390.967 229.879H418.213V267.408H424.541ZM461.411 274L461.235 268.067C458.833 270.44 456.387 272.154 453.896 273.209C451.436 274.264 448.843 274.791 446.118 274.791C443.599 274.791 441.445 274.469 439.658 273.824C437.871 273.18 436.392 272.301 435.22 271.188C434.077 270.045 433.228 268.712 432.671 267.188C432.144 265.665 431.88 264.01 431.88 262.223C431.88 257.799 433.521 254.342 436.802 251.852C440.112 249.332 444.99 248.072 451.436 248.072H460.576V244.205C460.576 241.598 459.741 239.518 458.071 237.965C456.401 236.383 453.853 235.592 450.425 235.592C447.935 235.592 445.474 235.87 443.042 236.427C440.64 236.983 438.149 237.774 435.571 238.8V231.9C436.538 231.549 437.607 231.212 438.779 230.89C439.98 230.538 441.24 230.23 442.559 229.967C443.877 229.703 445.254 229.498 446.689 229.352C448.125 229.176 449.575 229.088 451.04 229.088C453.706 229.088 456.108 229.381 458.247 229.967C460.386 230.553 462.188 231.446 463.652 232.647C465.146 233.849 466.289 235.357 467.08 237.174C467.871 238.99 468.267 241.129 468.267 243.59V274H461.411ZM460.576 253.917H450.864C448.96 253.917 447.319 254.107 445.942 254.488C444.565 254.869 443.438 255.411 442.559 256.114C441.68 256.817 441.021 257.667 440.581 258.663C440.171 259.63 439.966 260.729 439.966 261.959C439.966 262.809 440.098 263.629 440.361 264.42C440.625 265.182 441.05 265.87 441.636 266.485C442.222 267.071 442.983 267.54 443.921 267.892C444.858 268.243 446.001 268.419 447.349 268.419C449.106 268.419 451.113 267.892 453.369 266.837C455.654 265.753 458.057 264.054 460.576 261.739V253.917ZM518.013 274H510.366V254.488H490.195V274H482.549V229.879H490.195V247.809H510.366V229.879H518.013V274ZM567.495 274H559.849V254.488H539.678V274H532.031V229.879H539.678V247.809H559.849V229.879H567.495V274ZM612.803 274V229.879H620.361V274H612.803ZM600.059 260.465C600.059 258.15 599.326 256.363 597.861 255.104C596.426 253.814 594.126 253.17 590.962 253.17C590.112 253.17 589.248 253.185 588.369 253.214C587.49 253.243 586.582 253.287 585.645 253.346V267.848C586.582 267.994 587.476 268.097 588.325 268.155C589.175 268.185 590.024 268.199 590.874 268.199C592.661 268.199 594.141 267.994 595.312 267.584C596.484 267.145 597.407 266.573 598.081 265.87C598.784 265.167 599.282 264.347 599.575 263.409C599.897 262.472 600.059 261.49 600.059 260.465ZM585.645 246.93C586.699 246.9 587.681 246.886 588.589 246.886C589.526 246.856 590.493 246.842 591.489 246.842C594.243 246.842 596.646 247.179 598.696 247.853C600.776 248.497 602.505 249.42 603.882 250.621C605.259 251.793 606.284 253.214 606.958 254.884C607.632 256.524 607.969 258.312 607.969 260.245C607.969 262.589 607.573 264.654 606.782 266.441C605.991 268.199 604.863 269.679 603.398 270.88C601.934 272.081 600.132 272.989 597.993 273.604C595.884 274.22 593.364 274.527 590.435 274.527C588.56 274.527 586.567 274.469 584.458 274.352C582.378 274.264 580.254 274.059 578.086 273.736V229.879H585.645V246.93ZM668.262 249.61C668.262 250.694 668.247 251.603 668.218 252.335C668.188 253.067 668.145 253.756 668.086 254.4H637.104C637.104 258.912 638.364 262.384 640.884 264.815C643.403 267.218 647.036 268.419 651.782 268.419C653.071 268.419 654.36 268.375 655.649 268.287C656.938 268.17 658.184 268.023 659.385 267.848C660.586 267.672 661.729 267.481 662.812 267.276C663.926 267.042 664.951 266.793 665.889 266.529V272.813C663.809 273.399 661.45 273.868 658.813 274.22C656.206 274.601 653.496 274.791 650.684 274.791C646.904 274.791 643.652 274.278 640.928 273.253C638.203 272.228 635.962 270.748 634.204 268.814C632.476 266.852 631.187 264.464 630.337 261.651C629.517 258.81 629.106 255.602 629.106 252.027C629.106 248.922 629.546 245.992 630.425 243.238C631.333 240.455 632.637 238.023 634.336 235.943C636.064 233.834 638.174 232.164 640.664 230.934C643.154 229.703 645.981 229.088 649.146 229.088C652.222 229.088 654.946 229.571 657.319 230.538C659.692 231.505 661.685 232.882 663.296 234.669C664.937 236.427 666.167 238.58 666.987 241.129C667.837 243.648 668.262 246.476 668.262 249.61ZM660.308 248.512C660.396 246.549 660.205 244.762 659.736 243.15C659.268 241.51 658.535 240.104 657.539 238.932C656.572 237.76 655.356 236.852 653.892 236.207C652.427 235.533 650.728 235.196 648.794 235.196C647.124 235.196 645.601 235.519 644.224 236.163C642.847 236.808 641.66 237.716 640.664 238.888C639.668 240.06 638.862 241.466 638.247 243.106C637.632 244.747 637.251 246.549 637.104 248.512H660.308Z" fill="white"/>
<path d="M1500 0L1650 199L1500 400H900L1050 199L900 0H1500Z" fill="#333344"/>
<path d="M1650 0L1800 199L1650 400H1050L1200 199L1050 0H1650Z" fill="#484880"/>
<path d="M2400 0L2550 199L2400 400H1800L1950 199L1800 0H2400Z" fill="#333344"/>
<path d="M2550 0L2700 199L2550 400H1950L2100 199L1950 0H2550Z" fill="#484880"/>
<path d="M3300 0L3450 199L3300 400H2700L2850 199L2700 0H3300Z" fill="#333344"/>
<path d="M3450 0L3600 199L3450 400H2850L3000 199L2850 0H3450Z" fill="#484880"/>
<path d="M4200 0L4350 199L4200 400H3600L3750 199L3600 0H4200Z" fill="#333344"/>
<path d="M4350 0L4500 199L4350 400H3750L3900 199L3750 0H4350Z" fill="#484880"/>
<path d="M1220.52 118.419V169H1212.57V111.563H1245.62V118.419H1220.52ZM1296.11 144.61C1296.11 145.694 1296.09 146.603 1296.06 147.335C1296.04 148.067 1295.99 148.756 1295.93 149.4H1264.95C1264.95 153.912 1266.21 157.384 1268.73 159.815C1271.25 162.218 1274.88 163.419 1279.63 163.419C1280.92 163.419 1282.21 163.375 1283.5 163.287C1284.79 163.17 1286.03 163.023 1287.23 162.848C1288.43 162.672 1289.58 162.481 1290.66 162.276C1291.77 162.042 1292.8 161.793 1293.74 161.529V167.813C1291.66 168.399 1289.3 168.868 1286.66 169.22C1284.05 169.601 1281.34 169.791 1278.53 169.791C1274.75 169.791 1271.5 169.278 1268.77 168.253C1266.05 167.228 1263.81 165.748 1262.05 163.814C1260.32 161.852 1259.03 159.464 1258.18 156.651C1257.36 153.81 1256.95 150.602 1256.95 147.027C1256.95 143.922 1257.39 140.992 1258.27 138.238C1259.18 135.455 1260.48 133.023 1262.18 130.943C1263.91 128.834 1266.02 127.164 1268.51 125.934C1271 124.703 1273.83 124.088 1276.99 124.088C1280.07 124.088 1282.79 124.571 1285.17 125.538C1287.54 126.505 1289.53 127.882 1291.14 129.669C1292.78 131.427 1294.01 133.58 1294.83 136.129C1295.68 138.648 1296.11 141.476 1296.11 144.61ZM1288.15 143.512C1288.24 141.549 1288.05 139.762 1287.58 138.15C1287.11 136.51 1286.38 135.104 1285.39 133.932C1284.42 132.76 1283.2 131.852 1281.74 131.207C1280.27 130.533 1278.57 130.196 1276.64 130.196C1274.97 130.196 1273.45 130.519 1272.07 131.163C1270.69 131.808 1269.51 132.716 1268.51 133.888C1267.51 135.06 1266.71 136.466 1266.09 138.106C1265.48 139.747 1265.1 141.549 1264.95 143.512H1288.15ZM1343.79 169H1336.14V149.488H1315.97V169H1308.33V124.879H1315.97V142.809H1336.14V124.879H1343.79V169ZM1395.07 144.61C1395.07 145.694 1395.06 146.603 1395.03 147.335C1395 148.067 1394.96 148.756 1394.9 149.4H1363.92C1363.92 153.912 1365.18 157.384 1367.7 159.815C1370.21 162.218 1373.85 163.419 1378.59 163.419C1379.88 163.419 1381.17 163.375 1382.46 163.287C1383.75 163.17 1385 163.023 1386.2 162.848C1387.4 162.672 1388.54 162.481 1389.62 162.276C1390.74 162.042 1391.76 161.793 1392.7 161.529V167.813C1390.62 168.399 1388.26 168.868 1385.62 169.22C1383.02 169.601 1380.31 169.791 1377.5 169.791C1373.72 169.791 1370.46 169.278 1367.74 168.253C1365.01 167.228 1362.77 165.748 1361.02 163.814C1359.29 161.852 1358 159.464 1357.15 156.651C1356.33 153.81 1355.92 150.602 1355.92 147.027C1355.92 143.922 1356.36 140.992 1357.24 138.238C1358.14 135.455 1359.45 133.023 1361.15 130.943C1362.88 128.834 1364.99 127.164 1367.48 125.934C1369.97 124.703 1372.79 124.088 1375.96 124.088C1379.03 124.088 1381.76 124.571 1384.13 125.538C1386.5 126.505 1388.5 127.882 1390.11 129.669C1391.75 131.427 1392.98 133.58 1393.8 136.129C1394.65 138.648 1395.07 141.476 1395.07 144.61ZM1387.12 143.512C1387.21 141.549 1387.02 139.762 1386.55 138.15C1386.08 136.51 1385.35 135.104 1384.35 133.932C1383.38 132.76 1382.17 131.852 1380.7 131.207C1379.24 130.533 1377.54 130.196 1375.61 130.196C1373.94 130.196 1372.41 130.519 1371.04 131.163C1369.66 131.808 1368.47 132.716 1367.48 133.888C1366.48 135.06 1365.67 136.466 1365.06 138.106C1364.44 139.747 1364.06 141.549 1363.92 143.512H1387.12ZM1445 146.148C1445 150.074 1444.44 153.502 1443.33 156.432C1442.24 159.361 1440.73 161.793 1438.8 163.727C1436.87 165.66 1434.58 167.11 1431.94 168.077C1429.31 169.044 1426.45 169.527 1423.37 169.527C1421.97 169.527 1420.56 169.454 1419.16 169.308C1417.78 169.161 1416.37 168.912 1414.94 168.561V187.018H1407.29V124.879H1414.1L1414.58 132.262C1416.78 129.244 1419.13 127.135 1421.62 125.934C1424.11 124.703 1426.8 124.088 1429.7 124.088C1432.22 124.088 1434.43 124.615 1436.34 125.67C1438.24 126.725 1439.84 128.219 1441.13 130.152C1442.42 132.057 1443.38 134.371 1444.03 137.096C1444.67 139.791 1445 142.809 1445 146.148ZM1437.17 146.5C1437.17 144.186 1437 142.062 1436.65 140.128C1436.32 138.194 1435.8 136.539 1435.06 135.162C1434.33 133.785 1433.39 132.716 1432.25 131.954C1431.11 131.163 1429.75 130.768 1428.16 130.768C1427.2 130.768 1426.22 130.929 1425.22 131.251C1424.22 131.544 1423.18 132.057 1422.1 132.789C1421.04 133.492 1419.92 134.444 1418.72 135.646C1417.54 136.817 1416.28 138.282 1414.94 140.04V161.441C1416.34 162.027 1417.82 162.496 1419.38 162.848C1420.93 163.17 1422.45 163.331 1423.95 163.331C1428.08 163.331 1431.31 161.939 1433.66 159.156C1436 156.344 1437.17 152.125 1437.17 146.5ZM1485.12 169L1484.94 163.067C1482.54 165.44 1480.09 167.154 1477.6 168.209C1475.14 169.264 1472.55 169.791 1469.82 169.791C1467.3 169.791 1465.15 169.469 1463.36 168.824C1461.58 168.18 1460.1 167.301 1458.93 166.188C1457.78 165.045 1456.93 163.712 1456.38 162.188C1455.85 160.665 1455.59 159.01 1455.59 157.223C1455.59 152.799 1457.23 149.342 1460.51 146.852C1463.82 144.332 1468.7 143.072 1475.14 143.072H1484.28V139.205C1484.28 136.598 1483.45 134.518 1481.78 132.965C1480.11 131.383 1477.56 130.592 1474.13 130.592C1471.64 130.592 1469.18 130.87 1466.75 131.427C1464.35 131.983 1461.86 132.774 1459.28 133.8V126.9C1460.24 126.549 1461.31 126.212 1462.49 125.89C1463.69 125.538 1464.95 125.23 1466.26 124.967C1467.58 124.703 1468.96 124.498 1470.4 124.352C1471.83 124.176 1473.28 124.088 1474.75 124.088C1477.41 124.088 1479.81 124.381 1481.95 124.967C1484.09 125.553 1485.89 126.446 1487.36 127.647C1488.85 128.849 1490 130.357 1490.79 132.174C1491.58 133.99 1491.97 136.129 1491.97 138.59V169H1485.12ZM1484.28 148.917H1474.57C1472.67 148.917 1471.03 149.107 1469.65 149.488C1468.27 149.869 1467.14 150.411 1466.26 151.114C1465.39 151.817 1464.73 152.667 1464.29 153.663C1463.88 154.63 1463.67 155.729 1463.67 156.959C1463.67 157.809 1463.8 158.629 1464.07 159.42C1464.33 160.182 1464.76 160.87 1465.34 161.485C1465.93 162.071 1466.69 162.54 1467.63 162.892C1468.56 163.243 1469.71 163.419 1471.05 163.419C1472.81 163.419 1474.82 162.892 1477.08 161.837C1479.36 160.753 1481.76 159.054 1484.28 156.739V148.917ZM1546.64 162.408L1546.2 180.25H1539.26V169H1505.9V124.879H1513.55V162.408H1533.68V124.879H1541.32V162.408H1546.64ZM1564 124.879V155.948L1583.25 124.879H1590.54V169H1582.9V137.931L1563.65 169H1556.35V124.879H1564ZM1607.99 156.256C1608.96 154.205 1610.01 152.652 1611.15 151.598C1612.32 150.543 1613.79 149.84 1615.55 149.488C1613.7 149.137 1612.18 148.565 1610.98 147.774C1609.78 146.983 1608.81 146.075 1608.08 145.05C1607.37 143.995 1606.88 142.882 1606.58 141.71C1606.32 140.538 1606.19 139.381 1606.19 138.238C1606.19 136.305 1606.51 134.488 1607.15 132.789C1607.8 131.09 1608.84 129.61 1610.27 128.351C1611.71 127.091 1613.58 126.095 1615.9 125.362C1618.24 124.63 1621.58 124.264 1625.92 124.264C1628.35 124.264 1630.75 124.352 1633.12 124.527C1635.5 124.674 1637.83 124.864 1640.11 125.099V169H1632.47V151.905H1625.83C1624.8 151.905 1623.75 152.008 1622.67 152.213C1621.61 152.389 1620.64 152.74 1619.77 153.268C1618.89 153.766 1618.08 154.425 1617.35 155.245C1616.65 156.065 1616.02 157.105 1615.46 158.365L1610.62 169H1601.97L1607.99 156.256ZM1614.01 138.15C1614.01 140.67 1614.86 142.56 1616.56 143.819C1618.29 145.079 1620.83 145.709 1624.2 145.709H1632.47V130.943C1631.21 130.826 1629.99 130.738 1628.82 130.68C1627.65 130.621 1626.42 130.592 1625.13 130.592C1622.61 130.592 1620.69 130.768 1619.37 131.119C1618.05 131.441 1617.01 131.925 1616.25 132.569C1615.49 133.185 1614.92 133.946 1614.54 134.854C1614.18 135.763 1614.01 136.861 1614.01 138.15ZM1293.12 272.374C1291.13 273.136 1289.08 273.692 1286.97 274.044C1284.89 274.425 1282.73 274.615 1280.51 274.615C1273.54 274.615 1268.16 272.726 1264.38 268.946C1260.63 265.167 1258.75 259.645 1258.75 252.379C1258.75 248.893 1259.3 245.729 1260.38 242.887C1261.46 240.045 1262.99 237.613 1264.95 235.592C1266.91 233.57 1269.26 232.018 1271.98 230.934C1274.71 229.82 1277.71 229.264 1280.99 229.264C1283.28 229.264 1285.42 229.425 1287.41 229.747C1289.4 230.069 1291.3 230.597 1293.12 231.329V238.624C1291.22 237.628 1289.27 236.91 1287.28 236.471C1285.31 236.002 1283.28 235.768 1281.17 235.768C1279.2 235.768 1277.34 236.148 1275.59 236.91C1273.86 237.643 1272.33 238.712 1271.02 240.118C1269.7 241.524 1268.66 243.238 1267.9 245.26C1267.13 247.281 1266.75 249.566 1266.75 252.115C1266.75 257.447 1268.04 261.446 1270.62 264.112C1273.23 266.749 1276.83 268.067 1281.43 268.067C1283.51 268.067 1285.52 267.833 1287.45 267.364C1289.41 266.896 1291.3 266.192 1293.12 265.255V272.374ZM1316.59 229.879V260.948L1335.83 229.879H1343.13V274H1335.48V242.931L1316.24 274H1308.94V229.879H1316.59ZM1369.15 236.471V274H1361.41V229.879H1393.36V236.471H1369.15ZM1442.75 274H1435.11V254.488H1414.94V274H1407.29V229.879H1414.94V247.809H1435.11V229.879H1442.75V274ZM1485.12 274L1484.94 268.067C1482.54 270.44 1480.09 272.154 1477.6 273.209C1475.14 274.264 1472.55 274.791 1469.82 274.791C1467.3 274.791 1465.15 274.469 1463.36 273.824C1461.58 273.18 1460.1 272.301 1458.93 271.188C1457.78 270.045 1456.93 268.712 1456.38 267.188C1455.85 265.665 1455.59 264.01 1455.59 262.223C1455.59 257.799 1457.23 254.342 1460.51 251.852C1463.82 249.332 1468.7 248.072 1475.14 248.072H1484.28V244.205C1484.28 241.598 1483.45 239.518 1481.78 237.965C1480.11 236.383 1477.56 235.592 1474.13 235.592C1471.64 235.592 1469.18 235.87 1466.75 236.427C1464.35 236.983 1461.86 237.774 1459.28 238.8V231.9C1460.24 231.549 1461.31 231.212 1462.49 230.89C1463.69 230.538 1464.95 230.23 1466.26 229.967C1467.58 229.703 1468.96 229.498 1470.4 229.352C1471.83 229.176 1473.28 229.088 1474.75 229.088C1477.41 229.088 1479.81 229.381 1481.95 229.967C1484.09 230.553 1485.89 231.446 1487.36 232.647C1488.85 233.849 1490 235.357 1490.79 237.174C1491.58 238.99 1491.97 241.129 1491.97 243.59V274H1485.12ZM1484.28 253.917H1474.57C1472.67 253.917 1471.03 254.107 1469.65 254.488C1468.27 254.869 1467.14 255.411 1466.26 256.114C1465.39 256.817 1464.73 257.667 1464.29 258.663C1463.88 259.63 1463.67 260.729 1463.67 261.959C1463.67 262.809 1463.8 263.629 1464.07 264.42C1464.33 265.182 1464.76 265.87 1465.34 266.485C1465.93 267.071 1466.69 267.54 1467.63 267.892C1468.56 268.243 1469.71 268.419 1471.05 268.419C1472.81 268.419 1474.82 267.892 1477.08 266.837C1479.36 265.753 1481.76 264.054 1484.28 261.739V253.917ZM1541.32 274H1533.68V236.471H1521.37C1521.02 242.506 1520.49 247.677 1519.79 251.983C1519.12 256.29 1518.3 259.894 1517.33 262.794C1516.36 265.665 1515.26 267.936 1514.03 269.605C1512.8 271.246 1511.47 272.447 1510.03 273.209C1508.63 273.941 1507.13 274.293 1505.55 274.264C1503.97 274.264 1502.34 274.059 1500.67 273.648L1501.03 267.32C1502.2 267.438 1503.3 267.379 1504.32 267.145C1505.35 266.91 1506.3 266.354 1507.18 265.475C1508.06 264.566 1508.85 263.277 1509.55 261.607C1510.28 259.908 1510.94 257.652 1511.53 254.84C1512.11 252.027 1512.61 248.585 1513.02 244.513C1513.46 240.411 1513.81 235.533 1514.08 229.879H1541.32V274ZM1584.08 274L1583.91 268.067C1581.5 270.44 1579.06 272.154 1576.57 273.209C1574.11 274.264 1571.51 274.791 1568.79 274.791C1566.27 274.791 1564.12 274.469 1562.33 273.824C1560.54 273.18 1559.06 272.301 1557.89 271.188C1556.75 270.045 1555.9 268.712 1555.34 267.188C1554.81 265.665 1554.55 264.01 1554.55 262.223C1554.55 257.799 1556.19 254.342 1559.47 251.852C1562.78 249.332 1567.66 248.072 1574.11 248.072H1583.25V244.205C1583.25 241.598 1582.41 239.518 1580.74 237.965C1579.07 236.383 1576.52 235.592 1573.1 235.592C1570.61 235.592 1568.14 235.87 1565.71 236.427C1563.31 236.983 1560.82 237.774 1558.24 238.8V231.9C1559.21 231.549 1560.28 231.212 1561.45 230.89C1562.65 230.538 1563.91 230.23 1565.23 229.967C1566.55 229.703 1567.92 229.498 1569.36 229.352C1570.8 229.176 1572.25 229.088 1573.71 229.088C1576.38 229.088 1578.78 229.381 1580.92 229.967C1583.06 230.553 1584.86 231.446 1586.32 232.647C1587.82 233.849 1588.96 235.357 1589.75 237.174C1590.54 238.99 1590.94 241.129 1590.94 243.59V274H1584.08ZM1583.25 253.917H1573.54C1571.63 253.917 1569.99 254.107 1568.61 254.488C1567.24 254.869 1566.11 255.411 1565.23 256.114C1564.35 256.817 1563.69 257.667 1563.25 258.663C1562.84 259.63 1562.64 260.729 1562.64 261.959C1562.64 262.809 1562.77 263.629 1563.03 264.42C1563.3 265.182 1563.72 265.87 1564.31 266.485C1564.89 267.071 1565.65 267.54 1566.59 267.892C1567.53 268.243 1568.67 268.419 1570.02 268.419C1571.78 268.419 1573.78 267.892 1576.04 266.837C1578.33 265.753 1580.73 264.054 1583.25 261.739V253.917Z" fill="white"/>
<path d="M2166.58 188.162H2175.85C2179.37 188.162 2182.46 188.587 2185.12 189.437C2187.82 190.257 2190.06 191.399 2191.85 192.864C2193.66 194.329 2195.02 196.043 2195.93 198.006C2196.87 199.969 2197.34 202.093 2197.34 204.378C2197.34 207.103 2196.8 209.563 2195.71 211.761C2194.66 213.929 2193.15 215.774 2191.19 217.298C2189.25 218.821 2186.91 219.993 2184.16 220.813C2181.43 221.604 2178.38 222 2175.01 222H2158.75V164.563H2193.3V171.155H2166.58V188.162ZM2189.08 204.905C2189.08 203.353 2188.81 201.946 2188.29 200.687C2187.76 199.427 2186.94 198.343 2185.83 197.435C2184.71 196.526 2183.29 195.838 2181.56 195.369C2179.83 194.871 2177.75 194.622 2175.32 194.622H2166.58V215.408H2175.59C2180.04 215.408 2183.39 214.5 2185.65 212.684C2187.93 210.838 2189.08 208.245 2189.08 204.905ZM2236.93 196.512C2236.73 194.432 2236.22 192.498 2235.4 190.711C2234.6 188.924 2233.54 187.488 2232.19 186.404C2230.87 185.32 2229.26 184.544 2227.35 184.075C2225.45 183.606 2223.43 183.372 2221.29 183.372C2218.92 183.372 2216.63 183.606 2214.43 184.075C2212.24 184.544 2210.14 185.247 2208.15 186.185V179.329C2210.32 178.567 2212.56 178.011 2214.87 177.659C2217.22 177.278 2219.62 177.088 2222.08 177.088C2225.89 177.088 2229.23 177.586 2232.1 178.582C2235 179.578 2237.4 181.043 2239.31 182.977C2241.24 184.881 2242.69 187.239 2243.66 190.052C2244.62 192.835 2245.11 196.043 2245.11 199.676C2245.11 203.455 2244.59 206.795 2243.57 209.695C2242.57 212.596 2241.06 215.027 2239.04 216.99C2237.02 218.953 2234.56 220.418 2231.66 221.385C2228.76 222.322 2225.45 222.791 2221.73 222.791C2219.15 222.791 2216.73 222.63 2214.48 222.308C2212.25 221.985 2210.14 221.458 2208.15 220.726V213.65C2210.23 214.646 2212.37 215.379 2214.57 215.848C2216.79 216.287 2219.06 216.507 2221.38 216.507C2226.45 216.507 2230.25 215.32 2232.8 212.947C2235.35 210.574 2236.79 207.117 2237.11 202.576H2210.74V196.512H2236.93ZM2297.49 222H2286.99L2266.42 198.357V222H2258.77V177.879H2266.42V198.05L2286.24 177.879H2296.35L2275.65 198.226L2297.49 222ZM2345.61 184.471H2328.87V222H2321.13V184.471H2304.39V177.879H2345.61V184.471ZM2394.04 197.61C2394.04 198.694 2394.02 199.603 2393.99 200.335C2393.96 201.067 2393.92 201.756 2393.86 202.4H2362.88C2362.88 206.912 2364.14 210.384 2366.66 212.815C2369.18 215.218 2372.81 216.419 2377.56 216.419C2378.85 216.419 2380.14 216.375 2381.43 216.287C2382.71 216.17 2383.96 216.023 2385.16 215.848C2386.36 215.672 2387.5 215.481 2388.59 215.276C2389.7 215.042 2390.73 214.793 2391.67 214.529V220.813C2389.58 221.399 2387.23 221.868 2384.59 222.22C2381.98 222.601 2379.27 222.791 2376.46 222.791C2372.68 222.791 2369.43 222.278 2366.7 221.253C2363.98 220.228 2361.74 218.748 2359.98 216.814C2358.25 214.852 2356.96 212.464 2356.11 209.651C2355.29 206.81 2354.88 203.602 2354.88 200.027C2354.88 196.922 2355.32 193.992 2356.2 191.238C2357.11 188.455 2358.41 186.023 2360.11 183.943C2361.84 181.834 2363.95 180.164 2366.44 178.934C2368.93 177.703 2371.76 177.088 2374.92 177.088C2378 177.088 2380.72 177.571 2383.1 178.538C2385.47 179.505 2387.46 180.882 2389.07 182.669C2390.71 184.427 2391.94 186.58 2392.76 189.129C2393.61 191.648 2394.04 194.476 2394.04 197.61ZM2386.08 196.512C2386.17 194.549 2385.98 192.762 2385.51 191.15C2385.04 189.51 2384.31 188.104 2383.32 186.932C2382.35 185.76 2381.13 184.852 2379.67 184.207C2378.2 183.533 2376.5 183.196 2374.57 183.196C2372.9 183.196 2371.38 183.519 2370 184.163C2368.62 184.808 2367.44 185.716 2366.44 186.888C2365.44 188.06 2364.64 189.466 2364.02 191.106C2363.41 192.747 2363.03 194.549 2362.88 196.512H2386.08ZM2440.53 220.374C2438.54 221.136 2436.49 221.692 2434.38 222.044C2432.3 222.425 2430.15 222.615 2427.92 222.615C2420.95 222.615 2415.57 220.726 2411.79 216.946C2408.04 213.167 2406.17 207.645 2406.17 200.379C2406.17 196.893 2406.71 193.729 2407.79 190.887C2408.88 188.045 2410.4 185.613 2412.36 183.592C2414.33 181.57 2416.67 180.018 2419.39 178.934C2422.12 177.82 2425.12 177.264 2428.4 177.264C2430.69 177.264 2432.83 177.425 2434.82 177.747C2436.81 178.069 2438.72 178.597 2440.53 179.329V186.624C2438.63 185.628 2436.68 184.91 2434.69 184.471C2432.72 184.002 2430.69 183.768 2428.58 183.768C2426.62 183.768 2424.76 184.148 2423 184.91C2421.27 185.643 2419.75 186.712 2418.43 188.118C2417.11 189.524 2416.07 191.238 2415.31 193.26C2414.55 195.281 2414.17 197.566 2414.17 200.115C2414.17 205.447 2415.45 209.446 2418.03 212.112C2420.64 214.749 2424.24 216.067 2428.84 216.067C2430.92 216.067 2432.93 215.833 2434.86 215.364C2436.83 214.896 2438.72 214.192 2440.53 213.255V220.374ZM2494.06 184.471H2477.31V222H2469.58V184.471H2452.84V177.879H2494.06V184.471Z" fill="white"/>
<path d="M3123.88 117H3116.24L3115.09 81.1846L3114.61 67.4297L3111.93 75.4277L3103.45 98.2793H3098.04L3089.96 76.3066L3087.28 67.4297L3087.1 81.7998L3086.09 117H3078.71L3081.52 59.5635H3090.79L3098.53 81.1846L3101.03 88.4795L3103.45 81.1846L3111.58 59.5635H3121.11L3123.88 117ZM3171.47 94.5879C3171.47 98.0156 3170.99 101.165 3170.02 104.036C3169.06 106.878 3167.67 109.324 3165.85 111.375C3164.03 113.396 3161.82 114.979 3159.21 116.121C3156.61 117.234 3153.65 117.791 3150.34 117.791C3147.17 117.791 3144.33 117.308 3141.81 116.341C3139.32 115.345 3137.2 113.895 3135.44 111.99C3133.71 110.086 3132.38 107.728 3131.44 104.915C3130.53 102.103 3130.08 98.8652 3130.08 95.2031C3130.08 91.7754 3130.56 88.6553 3131.53 85.8428C3132.5 83.001 3133.89 80.5693 3135.7 78.5479C3137.52 76.4971 3139.73 74.915 3142.34 73.8018C3144.95 72.6592 3147.91 72.0879 3151.22 72.0879C3154.38 72.0879 3157.21 72.5859 3159.7 73.582C3162.22 74.5488 3164.34 75.9844 3166.07 77.8887C3167.83 79.7637 3169.16 82.1074 3170.07 84.9199C3171.01 87.7324 3171.47 90.9551 3171.47 94.5879ZM3163.65 94.9395C3163.65 92.2148 3163.34 89.8418 3162.73 87.8203C3162.14 85.7695 3161.29 84.0703 3160.18 82.7227C3159.07 81.3457 3157.71 80.3203 3156.09 79.6465C3154.51 78.9434 3152.74 78.5918 3150.78 78.5918C3148.49 78.5918 3146.53 79.0459 3144.89 79.9541C3143.28 80.833 3141.94 82.0195 3140.89 83.5137C3139.86 85.0078 3139.1 86.751 3138.6 88.7432C3138.13 90.7061 3137.9 92.7715 3137.9 94.9395C3137.9 97.6641 3138.19 100.052 3138.78 102.103C3139.39 104.153 3140.26 105.867 3141.37 107.244C3142.49 108.592 3143.83 109.617 3145.42 110.32C3147 110.994 3148.78 111.331 3150.78 111.331C3153.06 111.331 3155.01 110.892 3156.62 110.013C3158.26 109.104 3159.59 107.903 3160.62 106.409C3161.67 104.915 3162.44 103.187 3162.91 101.224C3163.4 99.2314 3163.65 97.1367 3163.65 94.9395ZM3209.53 79.4707H3197.23C3196.93 84.5098 3196.55 88.8018 3196.08 92.3467C3195.62 95.8916 3195.06 98.8652 3194.41 101.268C3193.8 103.67 3193.08 105.589 3192.26 107.024C3191.44 108.46 3190.53 109.588 3189.54 110.408H3209.53V79.4707ZM3223.51 110.408L3223.02 128.25H3216.04V117H3183.87V128.25H3176.97L3176.53 110.408H3177.14C3178.26 110.408 3179.31 110.232 3180.31 109.881C3181.3 109.529 3182.23 108.87 3183.08 107.903C3183.93 106.907 3184.7 105.545 3185.41 103.816C3186.14 102.059 3186.78 99.8027 3187.34 97.0488C3187.92 94.2656 3188.42 90.8965 3188.83 86.9414C3189.27 82.9863 3189.64 78.2988 3189.93 72.8789H3217.18V110.408H3223.51ZM3269.3 92.6104C3269.3 93.6943 3269.28 94.6025 3269.25 95.335C3269.22 96.0674 3269.18 96.7559 3269.12 97.4004H3238.14C3238.14 101.912 3239.4 105.384 3241.92 107.815C3244.44 110.218 3248.07 111.419 3252.82 111.419C3254.11 111.419 3255.4 111.375 3256.68 111.287C3257.97 111.17 3259.22 111.023 3260.42 110.848C3261.62 110.672 3262.76 110.481 3263.85 110.276C3264.96 110.042 3265.99 109.793 3266.92 109.529V115.813C3264.84 116.399 3262.49 116.868 3259.85 117.22C3257.24 117.601 3254.53 117.791 3251.72 117.791C3247.94 117.791 3244.69 117.278 3241.96 116.253C3239.24 115.228 3237 113.748 3235.24 111.814C3233.51 109.852 3232.22 107.464 3231.37 104.651C3230.55 101.81 3230.14 98.6016 3230.14 95.0273C3230.14 91.9219 3230.58 88.9922 3231.46 86.2383C3232.37 83.4551 3233.67 81.0234 3235.37 78.9434C3237.1 76.834 3239.21 75.1641 3241.7 73.9336C3244.19 72.7031 3247.02 72.0879 3250.18 72.0879C3253.26 72.0879 3255.98 72.5713 3258.35 73.5381C3260.73 74.5049 3262.72 75.8818 3264.33 77.6689C3265.97 79.4268 3267.2 81.5801 3268.02 84.1289C3268.87 86.6484 3269.3 89.4756 3269.3 92.6104ZM3261.34 91.5117C3261.43 89.5488 3261.24 87.7617 3260.77 86.1504C3260.3 84.5098 3259.57 83.1035 3258.57 81.9316C3257.61 80.7598 3256.39 79.8516 3254.93 79.207C3253.46 78.5332 3251.76 78.1963 3249.83 78.1963C3248.16 78.1963 3246.64 78.5186 3245.26 79.1631C3243.88 79.8076 3242.7 80.7158 3241.7 81.8877C3240.7 83.0596 3239.9 84.4658 3239.28 86.1064C3238.67 87.7471 3238.29 89.5488 3238.14 91.5117H3261.34ZM3316.58 117H3308.94V79.4707H3296.63C3296.28 85.5059 3295.75 90.6768 3295.05 94.9834C3294.38 99.29 3293.55 102.894 3292.59 105.794C3291.62 108.665 3290.52 110.936 3289.29 112.605C3288.06 114.246 3286.73 115.447 3285.29 116.209C3283.89 116.941 3282.39 117.293 3280.81 117.264C3279.23 117.264 3277.6 117.059 3275.93 116.648L3276.28 110.32C3277.46 110.438 3278.55 110.379 3279.58 110.145C3280.61 109.91 3281.56 109.354 3282.44 108.475C3283.32 107.566 3284.11 106.277 3284.81 104.607C3285.54 102.908 3286.2 100.652 3286.79 97.8398C3287.37 95.0273 3287.87 91.585 3288.28 87.5127C3288.72 83.4111 3289.07 78.5332 3289.34 72.8789H3316.58V117ZM3360.7 103.245C3360.7 102.015 3360.47 100.945 3360 100.037C3359.56 99.0996 3358.84 98.3232 3357.85 97.708C3356.85 97.0635 3355.56 96.5801 3353.98 96.2578C3352.4 95.9355 3350.49 95.7744 3348.27 95.7744C3346.86 95.7744 3345.32 95.7891 3343.65 95.8184C3341.98 95.8477 3340.4 95.8916 3338.91 95.9502V110.672C3340.4 110.818 3341.84 110.936 3343.21 111.023C3344.62 111.082 3346.16 111.111 3347.83 111.111C3350.29 111.111 3352.34 110.965 3353.98 110.672C3355.62 110.35 3356.94 109.881 3357.93 109.266C3358.93 108.621 3359.63 107.801 3360.04 106.805C3360.48 105.809 3360.7 104.622 3360.7 103.245ZM3338.91 89.5342C3339.64 89.5049 3340.37 89.4902 3341.1 89.4902C3341.84 89.4609 3342.58 89.4463 3343.34 89.4463C3344.11 89.417 3344.91 89.4023 3345.76 89.4023C3346.61 89.373 3347.53 89.3584 3348.53 89.3584C3355.33 89.3584 3360.37 90.5303 3363.65 92.874C3366.96 95.1885 3368.61 98.5869 3368.61 103.069C3368.61 107.874 3366.87 111.492 3363.38 113.924C3359.9 116.326 3354.62 117.527 3347.56 117.527C3344.37 117.527 3341.47 117.454 3338.86 117.308C3336.28 117.19 3333.75 116.971 3331.26 116.648V72.8789H3338.91V89.5342ZM3046.98 182.142C3046.98 184.485 3046.54 186.814 3045.66 189.129C3044.78 191.414 3043.42 193.465 3041.57 195.281C3039.73 197.098 3037.37 198.577 3034.5 199.72C3031.63 200.833 3028.2 201.39 3024.21 201.39H3017.09V222H3009.27V164.563H3025.44C3028.29 164.563 3031.01 164.886 3033.62 165.53C3036.23 166.146 3038.51 167.156 3040.47 168.562C3042.47 169.969 3044.05 171.785 3045.22 174.012C3046.39 176.238 3046.98 178.948 3046.98 182.142ZM3038.85 182.493C3038.85 178.802 3037.63 175.975 3035.2 174.012C3032.8 172.049 3029.43 171.067 3025.09 171.067H3017.09V194.71H3024.39C3029.02 194.71 3032.58 193.699 3035.07 191.678C3037.59 189.656 3038.85 186.595 3038.85 182.493ZM3090.13 222V177.879H3097.69V222H3090.13ZM3077.39 208.465C3077.39 206.15 3076.66 204.363 3075.19 203.104C3073.75 201.814 3071.46 201.17 3068.29 201.17C3067.44 201.17 3066.58 201.185 3065.7 201.214C3064.82 201.243 3063.91 201.287 3062.97 201.346V215.848C3063.91 215.994 3064.8 216.097 3065.65 216.155C3066.5 216.185 3067.35 216.199 3068.2 216.199C3069.99 216.199 3071.47 215.994 3072.64 215.584C3073.81 215.145 3074.74 214.573 3075.41 213.87C3076.11 213.167 3076.61 212.347 3076.9 211.409C3077.23 210.472 3077.39 209.49 3077.39 208.465ZM3062.97 194.93C3064.03 194.9 3065.01 194.886 3065.92 194.886C3066.86 194.856 3067.82 194.842 3068.82 194.842C3071.57 194.842 3073.97 195.179 3076.03 195.853C3078.11 196.497 3079.83 197.42 3081.21 198.621C3082.59 199.793 3083.61 201.214 3084.29 202.884C3084.96 204.524 3085.3 206.312 3085.3 208.245C3085.3 210.589 3084.9 212.654 3084.11 214.441C3083.32 216.199 3082.19 217.679 3080.73 218.88C3079.26 220.081 3077.46 220.989 3075.32 221.604C3073.21 222.22 3070.69 222.527 3067.76 222.527C3065.89 222.527 3063.9 222.469 3061.79 222.352C3059.71 222.264 3057.58 222.059 3055.42 221.736V177.879H3062.97V194.93ZM3143.79 222H3136.14V202.488H3115.97V222H3108.33V177.879H3115.97V195.809H3136.14V177.879H3143.79V222ZM3196.22 199.588C3196.22 203.016 3195.73 206.165 3194.77 209.036C3193.8 211.878 3192.41 214.324 3190.59 216.375C3188.77 218.396 3186.56 219.979 3183.96 221.121C3181.35 222.234 3178.39 222.791 3175.08 222.791C3171.91 222.791 3169.07 222.308 3166.55 221.341C3164.06 220.345 3161.94 218.895 3160.18 216.99C3158.45 215.086 3157.12 212.728 3156.18 209.915C3155.27 207.103 3154.82 203.865 3154.82 200.203C3154.82 196.775 3155.3 193.655 3156.27 190.843C3157.24 188.001 3158.63 185.569 3160.44 183.548C3162.26 181.497 3164.47 179.915 3167.08 178.802C3169.69 177.659 3172.65 177.088 3175.96 177.088C3179.12 177.088 3181.95 177.586 3184.44 178.582C3186.96 179.549 3189.08 180.984 3190.81 182.889C3192.57 184.764 3193.9 187.107 3194.81 189.92C3195.75 192.732 3196.22 195.955 3196.22 199.588ZM3188.39 199.939C3188.39 197.215 3188.09 194.842 3187.47 192.82C3186.88 190.77 3186.04 189.07 3184.92 187.723C3183.81 186.346 3182.45 185.32 3180.83 184.646C3179.25 183.943 3177.48 183.592 3175.52 183.592C3173.23 183.592 3171.27 184.046 3169.63 184.954C3168.02 185.833 3166.68 187.02 3165.63 188.514C3164.6 190.008 3163.84 191.751 3163.34 193.743C3162.88 195.706 3162.64 197.771 3162.64 199.939C3162.64 202.664 3162.93 205.052 3163.52 207.103C3164.14 209.153 3165 210.867 3166.11 212.244C3167.23 213.592 3168.57 214.617 3170.16 215.32C3171.74 215.994 3173.53 216.331 3175.52 216.331C3177.8 216.331 3179.75 215.892 3181.36 215.013C3183 214.104 3184.34 212.903 3185.36 211.409C3186.42 209.915 3187.18 208.187 3187.65 206.224C3188.14 204.231 3188.39 202.137 3188.39 199.939ZM3235.11 204.905H3226.01C3219.18 204.905 3214.17 203.631 3210.98 201.082C3207.79 198.533 3206.19 194.827 3206.19 189.964V177.879H3213.93V188.953C3213.93 190.711 3214.16 192.19 3214.63 193.392C3215.1 194.593 3215.84 195.574 3216.87 196.336C3217.92 197.068 3219.26 197.596 3220.87 197.918C3222.51 198.24 3224.49 198.401 3226.8 198.401H3235.11V177.879H3242.75V222H3235.11V204.905ZM3292.24 222H3284.59V202.488H3264.42V222H3256.77V177.879H3264.42V195.809H3284.59V177.879H3292.24V222ZM3344.66 199.588C3344.66 203.016 3344.18 206.165 3343.21 209.036C3342.25 211.878 3340.85 214.324 3339.04 216.375C3337.22 218.396 3335.01 219.979 3332.4 221.121C3329.79 222.234 3326.84 222.791 3323.53 222.791C3320.36 222.791 3317.52 222.308 3315 221.341C3312.51 220.345 3310.39 218.895 3308.63 216.99C3306.9 215.086 3305.57 212.728 3304.63 209.915C3303.72 207.103 3303.27 203.865 3303.27 200.203C3303.27 196.775 3303.75 193.655 3304.72 190.843C3305.68 188.001 3307.08 185.569 3308.89 183.548C3310.71 181.497 3312.92 179.915 3315.53 178.802C3318.13 177.659 3321.09 177.088 3324.4 177.088C3327.57 177.088 3330.4 177.586 3332.89 178.582C3335.41 179.549 3337.53 180.984 3339.26 182.889C3341.02 184.764 3342.35 187.107 3343.26 189.92C3344.19 192.732 3344.66 195.955 3344.66 199.588ZM3336.84 199.939C3336.84 197.215 3336.53 194.842 3335.92 192.82C3335.33 190.77 3334.48 189.07 3333.37 187.723C3332.26 186.346 3330.89 185.32 3329.28 184.646C3327.7 183.943 3325.93 183.592 3323.96 183.592C3321.68 183.592 3319.72 184.046 3318.08 184.954C3316.46 185.833 3315.13 187.02 3314.08 188.514C3313.05 190.008 3312.29 191.751 3311.79 193.743C3311.32 195.706 3311.09 197.771 3311.09 199.939C3311.09 202.664 3311.38 205.052 3311.97 207.103C3312.58 209.153 3313.45 210.867 3314.56 212.244C3315.67 213.592 3317.02 214.617 3318.6 215.32C3320.19 215.994 3321.97 216.331 3323.96 216.331C3326.25 216.331 3328.2 215.892 3329.81 215.013C3331.45 214.104 3332.78 212.903 3333.81 211.409C3334.86 209.915 3335.62 208.187 3336.09 206.224C3336.59 204.231 3336.84 202.137 3336.84 199.939ZM3367.08 184.471V222H3359.34V177.879H3391.29V184.471H3367.08ZM3443.63 199.588C3443.63 203.016 3443.14 206.165 3442.18 209.036C3441.21 211.878 3439.82 214.324 3438 216.375C3436.19 218.396 3433.97 219.979 3431.37 221.121C3428.76 222.234 3425.8 222.791 3422.49 222.791C3419.33 222.791 3416.48 222.308 3413.96 221.341C3411.47 220.345 3409.35 218.895 3407.59 216.99C3405.86 215.086 3404.53 212.728 3403.59 209.915C3402.69 207.103 3402.23 203.865 3402.23 200.203C3402.23 196.775 3402.71 193.655 3403.68 190.843C3404.65 188.001 3406.04 185.569 3407.86 183.548C3409.67 181.497 3411.88 179.915 3414.49 178.802C3417.1 177.659 3420.06 177.088 3423.37 177.088C3426.53 177.088 3429.36 177.586 3431.85 178.582C3434.37 179.549 3436.49 180.984 3438.22 182.889C3439.98 184.764 3441.31 187.107 3442.22 189.92C3443.16 192.732 3443.63 195.955 3443.63 199.588ZM3435.81 199.939C3435.81 197.215 3435.5 194.842 3434.88 192.82C3434.3 190.77 3433.45 189.07 3432.33 187.723C3431.22 186.346 3429.86 185.32 3428.25 184.646C3426.67 183.943 3424.89 183.592 3422.93 183.592C3420.64 183.592 3418.68 184.046 3417.04 184.954C3415.43 185.833 3414.1 187.02 3413.04 188.514C3412.02 190.008 3411.25 191.751 3410.76 193.743C3410.29 195.706 3410.05 197.771 3410.05 199.939C3410.05 202.664 3410.35 205.052 3410.93 207.103C3411.55 209.153 3412.41 210.867 3413.53 212.244C3414.64 213.592 3415.99 214.617 3417.57 215.32C3419.15 215.994 3420.94 216.331 3422.93 216.331C3425.21 216.331 3427.16 215.892 3428.77 215.013C3430.42 214.104 3431.75 212.903 3432.77 211.409C3433.83 209.915 3434.59 208.187 3435.06 206.224C3435.56 204.231 3435.81 202.137 3435.81 199.939ZM3096.46 309.817C3096.46 312.571 3095.92 315.018 3094.83 317.156C3093.78 319.266 3092.26 321.053 3090.26 322.518C3088.3 323.982 3085.91 325.096 3083.1 325.857C3080.32 326.619 3077.21 327 3073.78 327H3058.75V269.563H3075.19C3087.99 269.563 3094.39 274.222 3094.39 283.538C3094.39 286.644 3093.65 289.31 3092.15 291.536C3090.69 293.763 3088.29 295.418 3084.95 296.502C3086.5 296.795 3087.96 297.293 3089.34 297.996C3090.75 298.699 3091.98 299.607 3093.03 300.721C3094.09 301.834 3094.92 303.152 3095.54 304.676C3096.15 306.199 3096.46 307.913 3096.46 309.817ZM3086.26 284.593C3086.26 283.421 3086.09 282.322 3085.74 281.297C3085.39 280.242 3084.77 279.349 3083.89 278.616C3083.01 277.854 3081.83 277.254 3080.33 276.814C3078.84 276.375 3076.95 276.155 3074.66 276.155H3066.58V294.129H3074.4C3076.19 294.129 3077.8 293.938 3079.23 293.558C3080.7 293.177 3081.94 292.591 3082.97 291.8C3084.02 291.009 3084.83 290.027 3085.39 288.855C3085.97 287.654 3086.26 286.233 3086.26 284.593ZM3088.15 310.081C3088.15 308.616 3087.85 307.298 3087.23 306.126C3086.62 304.954 3085.72 303.973 3084.55 303.182C3083.38 302.361 3081.94 301.731 3080.24 301.292C3078.57 300.853 3076.68 300.633 3074.58 300.633H3066.58V320.408H3074.84C3079.32 320.408 3082.66 319.573 3084.86 317.903C3087.06 316.233 3088.15 313.626 3088.15 310.081ZM3143.39 327H3135.75V289.471H3123.44C3123.09 295.506 3122.56 300.677 3121.86 304.983C3121.19 309.29 3120.37 312.894 3119.4 315.794C3118.43 318.665 3117.33 320.936 3116.1 322.605C3114.87 324.246 3113.54 325.447 3112.1 326.209C3110.7 326.941 3109.2 327.293 3107.62 327.264C3106.04 327.264 3104.41 327.059 3102.74 326.648L3103.1 320.32C3104.27 320.438 3105.37 320.379 3106.39 320.145C3107.42 319.91 3108.37 319.354 3109.25 318.475C3110.13 317.566 3110.92 316.277 3111.62 314.607C3112.35 312.908 3113.01 310.652 3113.6 307.84C3114.18 305.027 3114.68 301.585 3115.09 297.513C3115.53 293.411 3115.88 288.533 3116.15 282.879H3143.39V327ZM3166.07 282.879V313.948L3185.32 282.879H3192.61V327H3184.97V295.931L3165.72 327H3158.42V282.879H3166.07ZM3210.06 314.256C3211.03 312.205 3212.08 310.652 3213.22 309.598C3214.39 308.543 3215.86 307.84 3217.62 307.488C3215.77 307.137 3214.25 306.565 3213.05 305.774C3211.85 304.983 3210.88 304.075 3210.15 303.05C3209.44 301.995 3208.95 300.882 3208.65 299.71C3208.39 298.538 3208.26 297.381 3208.26 296.238C3208.26 294.305 3208.58 292.488 3209.22 290.789C3209.87 289.09 3210.91 287.61 3212.34 286.351C3213.78 285.091 3215.65 284.095 3217.97 283.362C3220.31 282.63 3223.65 282.264 3227.99 282.264C3230.42 282.264 3232.82 282.352 3235.2 282.527C3237.57 282.674 3239.9 282.864 3242.18 283.099V327H3234.54V309.905H3227.9C3226.88 309.905 3225.82 310.008 3224.74 310.213C3223.68 310.389 3222.71 310.74 3221.84 311.268C3220.96 311.766 3220.15 312.425 3219.42 313.245C3218.72 314.065 3218.09 315.105 3217.53 316.365L3212.7 327H3204.04L3210.06 314.256ZM3216.08 296.15C3216.08 298.67 3216.93 300.56 3218.63 301.819C3220.36 303.079 3222.91 303.709 3226.27 303.709H3234.54V288.943C3233.28 288.826 3232.06 288.738 3230.89 288.68C3229.72 288.621 3228.49 288.592 3227.2 288.592C3224.68 288.592 3222.76 288.768 3221.44 289.119C3220.12 289.441 3219.08 289.925 3218.32 290.569C3217.56 291.185 3216.99 291.946 3216.61 292.854C3216.25 293.763 3216.08 294.861 3216.08 296.15ZM3292.24 327H3284.59V307.488H3264.42V327H3256.77V282.879H3264.42V300.809H3284.59V282.879H3292.24V327ZM3314.52 282.879V313.948L3333.76 282.879H3341.06V327H3333.41V295.931L3314.17 327H3306.87V282.879H3314.52ZM3358.51 314.256C3359.47 312.205 3360.53 310.652 3361.67 309.598C3362.84 308.543 3364.31 307.84 3366.06 307.488C3364.22 307.137 3362.7 306.565 3361.49 305.774C3360.29 304.983 3359.33 304.075 3358.59 303.05C3357.89 301.995 3357.39 300.882 3357.1 299.71C3356.84 298.538 3356.7 297.381 3356.7 296.238C3356.7 294.305 3357.03 292.488 3357.67 290.789C3358.32 289.09 3359.36 287.61 3360.79 286.351C3362.23 285.091 3364.1 284.095 3366.42 283.362C3368.76 282.63 3372.1 282.264 3376.44 282.264C3378.87 282.264 3381.27 282.352 3383.64 282.527C3386.02 282.674 3388.34 282.864 3390.63 283.099V327H3382.98V309.905H3376.35C3375.32 309.905 3374.27 310.008 3373.18 310.213C3372.13 310.389 3371.16 310.74 3370.28 311.268C3369.4 311.766 3368.6 312.425 3367.87 313.245C3367.16 314.065 3366.53 315.105 3365.98 316.365L3361.14 327H3352.49L3358.51 314.256ZM3364.53 296.15C3364.53 298.67 3365.38 300.56 3367.08 301.819C3368.8 303.079 3371.35 303.709 3374.72 303.709H3382.98V288.943C3381.72 288.826 3380.51 288.738 3379.34 288.68C3378.16 288.621 3376.93 288.592 3375.64 288.592C3373.12 288.592 3371.21 288.768 3369.89 289.119C3368.57 289.441 3367.53 289.925 3366.77 290.569C3366.01 291.185 3365.43 291.946 3365.05 292.854C3364.7 293.763 3364.53 294.861 3364.53 296.15Z" fill="white"/>
<path d="M3914.08 120.307V159.383L3935.47 120.307H3942.16V172H3935.12V132.963L3913.76 172H3907.04V120.307H3914.08ZM3984.04 170.537C3982.25 171.222 3980.4 171.723 3978.5 172.04C3976.63 172.382 3974.69 172.554 3972.69 172.554C3966.41 172.554 3961.58 170.853 3958.17 167.452C3954.8 164.05 3953.11 159.08 3953.11 152.541C3953.11 149.403 3953.6 146.556 3954.58 143.998C3955.55 141.44 3956.92 139.252 3958.69 137.433C3960.46 135.613 3962.56 134.216 3965.02 133.24C3967.47 132.238 3970.17 131.737 3973.12 131.737C3975.18 131.737 3977.11 131.882 3978.9 132.172C3980.69 132.462 3982.41 132.937 3984.04 133.596V140.162C3982.33 139.265 3980.57 138.619 3978.78 138.224C3977.01 137.802 3975.18 137.591 3973.28 137.591C3971.52 137.591 3969.84 137.934 3968.26 138.619C3966.7 139.278 3965.33 140.241 3964.15 141.506C3962.96 142.772 3962.02 144.314 3961.34 146.134C3960.65 147.953 3960.31 150.01 3960.31 152.304C3960.31 157.103 3961.47 160.702 3963.79 163.101C3966.14 165.474 3969.38 166.661 3973.52 166.661C3975.39 166.661 3977.2 166.45 3978.94 166.028C3980.71 165.606 3982.41 164.973 3984.04 164.129V170.537ZM4029.64 172H4022.76V138.303H4004.61V172H3997.73V132.291H4029.64V172ZM4076.83 151.829C4076.83 154.914 4076.39 157.749 4075.52 160.333C4074.65 162.89 4073.4 165.092 4071.76 166.938C4070.13 168.757 4068.14 170.181 4065.79 171.209C4063.45 172.211 4060.78 172.712 4057.8 172.712C4054.96 172.712 4052.4 172.277 4050.13 171.407C4047.89 170.51 4045.98 169.205 4044.4 167.491C4042.84 165.777 4041.64 163.655 4040.8 161.124C4039.98 158.592 4039.57 155.679 4039.57 152.383C4039.57 149.298 4040.01 146.49 4040.88 143.958C4041.75 141.401 4043 139.212 4044.63 137.393C4046.27 135.547 4048.26 134.124 4050.6 133.122C4052.95 132.093 4055.61 131.579 4058.59 131.579C4061.44 131.579 4063.99 132.027 4066.23 132.924C4068.5 133.794 4070.41 135.086 4071.96 136.8C4073.54 138.487 4074.74 140.597 4075.56 143.128C4076.41 145.659 4076.83 148.56 4076.83 151.829ZM4069.79 152.146C4069.79 149.693 4069.51 147.558 4068.96 145.738C4068.43 143.893 4067.66 142.363 4066.66 141.15C4065.66 139.911 4064.43 138.988 4062.98 138.382C4061.56 137.749 4059.97 137.433 4058.2 137.433C4056.14 137.433 4054.38 137.841 4052.9 138.659C4051.45 139.45 4050.25 140.518 4049.3 141.862C4048.38 143.207 4047.69 144.776 4047.24 146.569C4046.82 148.335 4046.61 150.194 4046.61 152.146C4046.61 154.598 4046.87 156.747 4047.4 158.592C4047.96 160.438 4048.73 161.98 4049.73 163.22C4050.74 164.433 4051.95 165.355 4053.37 165.988C4054.8 166.595 4056.41 166.898 4058.2 166.898C4060.26 166.898 4062.01 166.502 4063.46 165.711C4064.94 164.894 4066.14 163.813 4067.06 162.468C4068.01 161.124 4068.69 159.568 4069.11 157.801C4069.56 156.008 4069.79 154.123 4069.79 152.146ZM4118.36 172H4111.47V138.224H4100.4C4100.08 143.655 4099.61 148.309 4098.98 152.185C4098.37 156.061 4097.63 159.304 4096.76 161.915C4095.89 164.499 4094.9 166.542 4093.79 168.045C4092.69 169.521 4091.49 170.603 4090.2 171.288C4088.93 171.947 4087.58 172.264 4086.16 172.237C4084.74 172.237 4083.27 172.053 4081.77 171.684L4082.09 165.988C4083.14 166.094 4084.13 166.041 4085.05 165.83C4085.98 165.619 4086.83 165.118 4087.62 164.327C4088.42 163.51 4089.13 162.35 4089.76 160.847C4090.42 159.317 4091.01 157.287 4091.54 154.756C4092.07 152.225 4092.52 149.126 4092.88 145.461C4093.28 141.77 4093.6 137.38 4093.83 132.291H4118.36V172ZM4163.25 172H4156.36V154.439H4138.21V172H4131.33V132.291H4138.21V148.428H4156.36V132.291H4163.25V172ZM4209.4 150.049C4209.4 151.025 4209.39 151.842 4209.36 152.501C4209.34 153.161 4209.3 153.78 4209.24 154.36H4181.36C4181.36 158.421 4182.49 161.545 4184.76 163.734C4187.03 165.896 4190.3 166.977 4194.57 166.977C4195.73 166.977 4196.89 166.938 4198.05 166.858C4199.21 166.753 4200.33 166.621 4201.41 166.463C4202.49 166.305 4203.52 166.133 4204.5 165.949C4205.5 165.738 4206.42 165.514 4207.27 165.276V170.932C4205.39 171.459 4203.27 171.881 4200.9 172.198C4198.55 172.541 4196.11 172.712 4193.58 172.712C4190.18 172.712 4187.25 172.25 4184.8 171.328C4182.35 170.405 4180.33 169.073 4178.75 167.333C4177.19 165.566 4176.03 163.417 4175.27 160.886C4174.53 158.329 4174.16 155.441 4174.16 152.225C4174.16 149.43 4174.56 146.793 4175.35 144.314C4176.17 141.81 4177.34 139.621 4178.87 137.749C4180.42 135.851 4182.32 134.348 4184.56 133.24C4186.8 132.133 4189.35 131.579 4192.2 131.579C4194.97 131.579 4197.42 132.014 4199.55 132.884C4201.69 133.754 4203.48 134.994 4204.93 136.602C4206.41 138.184 4207.52 140.122 4208.25 142.416C4209.02 144.684 4209.4 147.228 4209.4 150.049ZM4202.24 149.061C4202.32 147.294 4202.15 145.686 4201.73 144.235C4201.31 142.759 4200.65 141.493 4199.75 140.438C4198.88 139.384 4197.79 138.566 4196.47 137.986C4195.15 137.38 4193.62 137.077 4191.88 137.077C4190.38 137.077 4189.01 137.367 4187.77 137.947C4186.53 138.527 4185.46 139.344 4184.56 140.399C4183.67 141.454 4182.94 142.719 4182.39 144.196C4181.83 145.672 4181.49 147.294 4181.36 149.061H4202.24ZM4252.31 172H4245.43V154.439H4227.28V172H4220.4V132.291H4227.28V148.428H4245.43V132.291H4252.31V172ZM4272.37 132.291V160.253L4289.69 132.291H4296.25V172H4289.37V144.038L4272.05 172H4265.48V132.291H4272.37ZM4343 150.049C4343 151.025 4342.99 151.842 4342.96 152.501C4342.94 153.161 4342.9 153.78 4342.85 154.36H4314.96C4314.96 158.421 4316.1 161.545 4318.36 163.734C4320.63 165.896 4323.9 166.977 4328.17 166.977C4329.33 166.977 4330.49 166.938 4331.65 166.858C4332.81 166.753 4333.93 166.621 4335.01 166.463C4336.1 166.305 4337.12 166.133 4338.1 165.949C4339.1 165.738 4340.02 165.514 4340.87 165.276V170.932C4339 171.459 4336.87 171.881 4334.5 172.198C4332.15 172.541 4329.71 172.712 4327.18 172.712C4323.78 172.712 4320.86 172.25 4318.4 171.328C4315.95 170.405 4313.93 169.073 4312.35 167.333C4310.8 165.566 4309.64 163.417 4308.87 160.886C4308.13 158.329 4307.76 155.441 4307.76 152.225C4307.76 149.43 4308.16 146.793 4308.95 144.314C4309.77 141.81 4310.94 139.621 4312.47 137.749C4314.03 135.851 4315.92 134.348 4318.17 133.24C4320.41 132.133 4322.95 131.579 4325.8 131.579C4328.57 131.579 4331.02 132.014 4333.16 132.884C4335.29 133.754 4337.08 134.994 4338.53 136.602C4340.01 138.184 4341.12 140.122 4341.86 142.416C4342.62 144.684 4343 147.228 4343 150.049ZM4335.85 149.061C4335.92 147.294 4335.75 145.686 4335.33 144.235C4334.91 142.759 4334.25 141.493 4333.35 140.438C4332.48 139.384 4331.39 138.566 4330.07 137.986C4328.75 137.38 4327.22 137.077 4325.48 137.077C4323.98 137.077 4322.61 137.367 4321.37 137.947C4320.13 138.527 4319.06 139.344 4318.17 140.399C4317.27 141.454 4316.54 142.719 4315.99 144.196C4315.44 145.672 4315.09 147.294 4314.96 149.061H4335.85ZM4010.03 246.829C4010.03 249.914 4009.59 252.749 4008.72 255.333C4007.85 257.89 4006.6 260.092 4004.96 261.938C4003.33 263.757 4001.34 265.181 3998.99 266.209C3996.64 267.211 3993.98 267.712 3991 267.712C3988.15 267.712 3985.6 267.277 3983.33 266.407C3981.09 265.51 3979.18 264.205 3977.59 262.491C3976.04 260.777 3974.84 258.655 3974 256.124C3973.18 253.592 3972.77 250.679 3972.77 247.383C3972.77 244.298 3973.2 241.49 3974.07 238.958C3974.94 236.401 3976.2 234.212 3977.83 232.393C3979.47 230.547 3981.46 229.124 3983.8 228.122C3986.15 227.093 3988.81 226.579 3991.79 226.579C3994.64 226.579 3997.19 227.027 3999.43 227.924C4001.69 228.794 4003.61 230.086 4005.16 231.8C4006.74 233.487 4007.94 235.597 4008.76 238.128C4009.6 240.659 4010.03 243.56 4010.03 246.829ZM4002.99 247.146C4002.99 244.693 4002.71 242.558 4002.16 240.738C4001.63 238.893 4000.86 237.363 3999.86 236.15C3998.86 234.911 3997.63 233.988 3996.18 233.382C3994.76 232.749 3993.16 232.433 3991.4 232.433C3989.34 232.433 3987.57 232.841 3986.1 233.659C3984.65 234.45 3983.45 235.518 3982.5 236.862C3981.58 238.207 3980.89 239.776 3980.44 241.569C3980.02 243.335 3979.81 245.194 3979.81 247.146C3979.81 249.598 3980.07 251.747 3980.6 253.592C3981.15 255.438 3981.93 256.98 3982.93 258.22C3983.94 259.433 3985.15 260.355 3986.57 260.988C3988 261.595 3989.6 261.898 3991.4 261.898C3993.45 261.898 3995.21 261.502 3996.66 260.711C3998.13 259.894 3999.33 258.813 4000.26 257.468C4001.21 256.124 4001.89 254.568 4002.31 252.801C4002.76 251.008 4002.99 249.123 4002.99 247.146ZM4053.93 246.434C4053.93 249.967 4053.43 253.052 4052.42 255.688C4051.45 258.325 4050.09 260.514 4048.35 262.254C4046.61 263.994 4044.55 265.299 4042.18 266.169C4039.81 267.04 4037.24 267.475 4034.47 267.475C4033.2 267.475 4031.94 267.409 4030.67 267.277C4029.43 267.145 4028.17 266.921 4026.87 266.604V283.216H4019.99V227.291H4026.12L4026.56 233.936C4028.54 231.22 4030.65 229.321 4032.89 228.24C4035.13 227.133 4037.55 226.579 4040.16 226.579C4042.43 226.579 4044.42 227.054 4046.14 228.003C4047.85 228.952 4049.29 230.297 4050.45 232.037C4051.61 233.751 4052.48 235.834 4053.06 238.286C4053.64 240.712 4053.93 243.428 4053.93 246.434ZM4046.89 246.75C4046.89 244.667 4046.73 242.755 4046.41 241.015C4046.12 239.275 4045.65 237.785 4044.99 236.546C4044.33 235.307 4043.49 234.344 4042.46 233.659C4041.43 232.947 4040.2 232.591 4038.78 232.591C4037.91 232.591 4037.03 232.736 4036.13 233.026C4035.23 233.29 4034.3 233.751 4033.32 234.41C4032.37 235.043 4031.36 235.9 4030.28 236.981C4029.22 238.036 4028.09 239.354 4026.87 240.936V260.197C4028.14 260.725 4029.47 261.146 4030.87 261.463C4032.27 261.753 4033.64 261.898 4034.98 261.898C4038.7 261.898 4041.61 260.646 4043.72 258.141C4045.83 255.609 4046.89 251.812 4046.89 246.75ZM4088.81 233.224H4077.74C4077.47 237.759 4077.13 241.622 4076.71 244.812C4076.29 248.002 4075.79 250.679 4075.21 252.841C4074.65 255.003 4074.01 256.73 4073.27 258.022C4072.53 259.314 4071.71 260.329 4070.82 261.067H4088.81V233.224ZM4101.39 261.067L4100.95 277.125H4094.66V267H4065.71V277.125H4059.5L4059.11 261.067H4059.66C4060.66 261.067 4061.61 260.909 4062.51 260.593C4063.41 260.276 4064.24 259.683 4065 258.813C4065.77 257.917 4066.46 256.69 4067.1 255.135C4067.76 253.553 4068.34 251.522 4068.84 249.044C4069.37 246.539 4069.81 243.507 4070.18 239.947C4070.58 236.388 4070.91 232.169 4071.17 227.291H4095.69V261.067H4101.39ZM4142.6 245.049C4142.6 246.025 4142.59 246.842 4142.56 247.501C4142.53 248.161 4142.49 248.78 4142.44 249.36H4114.56C4114.56 253.421 4115.69 256.545 4117.96 258.734C4120.23 260.896 4123.5 261.977 4127.77 261.977C4128.93 261.977 4130.09 261.938 4131.25 261.858C4132.41 261.753 4133.53 261.621 4134.61 261.463C4135.69 261.305 4136.72 261.133 4137.7 260.949C4138.7 260.738 4139.62 260.514 4140.46 260.276V265.932C4138.59 266.459 4136.47 266.881 4134.1 267.198C4131.75 267.541 4129.31 267.712 4126.78 267.712C4123.38 267.712 4120.45 267.25 4118 266.328C4115.55 265.405 4113.53 264.073 4111.95 262.333C4110.39 260.566 4109.23 258.417 4108.47 255.886C4107.73 253.329 4107.36 250.441 4107.36 247.225C4107.36 244.43 4107.76 241.793 4108.55 239.314C4109.36 236.81 4110.54 234.621 4112.07 232.749C4113.62 230.851 4115.52 229.348 4117.76 228.24C4120 227.133 4122.55 226.579 4125.4 226.579C4128.16 226.579 4130.62 227.014 4132.75 227.884C4134.89 228.754 4136.68 229.994 4138.13 231.602C4139.61 233.184 4140.71 235.122 4141.45 237.416C4142.22 239.684 4142.6 242.228 4142.6 245.049ZM4135.44 244.061C4135.52 242.294 4135.35 240.686 4134.93 239.235C4134.51 237.759 4133.85 236.493 4132.95 235.438C4132.08 234.384 4130.99 233.566 4129.67 232.986C4128.35 232.38 4126.82 232.077 4125.08 232.077C4123.58 232.077 4122.21 232.367 4120.97 232.947C4119.73 233.527 4118.66 234.344 4117.76 235.399C4116.87 236.454 4116.14 237.719 4115.59 239.196C4115.03 240.672 4114.69 242.294 4114.56 244.061H4135.44ZM4187.53 246.434C4187.53 249.967 4187.03 253.052 4186.03 255.688C4185.05 258.325 4183.69 260.514 4181.95 262.254C4180.21 263.994 4178.16 265.299 4175.78 266.169C4173.41 267.04 4170.84 267.475 4168.07 267.475C4166.81 267.475 4165.54 267.409 4164.27 267.277C4163.03 267.145 4161.77 266.921 4160.48 266.604V283.216H4153.6V227.291H4159.73L4160.16 233.936C4162.14 231.22 4164.25 229.321 4166.49 228.24C4168.73 227.133 4171.16 226.579 4173.77 226.579C4176.03 226.579 4178.02 227.054 4179.74 228.003C4181.45 228.952 4182.89 230.297 4184.05 232.037C4185.21 233.751 4186.08 235.834 4186.66 238.286C4187.24 240.712 4187.53 243.428 4187.53 246.434ZM4180.49 246.75C4180.49 244.667 4180.33 242.755 4180.02 241.015C4179.73 239.275 4179.25 237.785 4178.59 236.546C4177.93 235.307 4177.09 234.344 4176.06 233.659C4175.03 232.947 4173.81 232.591 4172.38 232.591C4171.51 232.591 4170.63 232.736 4169.73 233.026C4168.84 233.29 4167.9 233.751 4166.92 234.41C4165.97 235.043 4164.96 235.9 4163.88 236.981C4162.82 238.036 4161.69 239.354 4160.48 240.936V260.197C4161.74 260.725 4163.07 261.146 4164.47 261.463C4165.87 261.753 4167.24 261.898 4168.58 261.898C4172.3 261.898 4175.22 260.646 4177.33 258.141C4179.44 255.609 4180.49 251.812 4180.49 246.75ZM4232.7 246.829C4232.7 249.914 4232.26 252.749 4231.39 255.333C4230.52 257.89 4229.27 260.092 4227.63 261.938C4226 263.757 4224.01 265.181 4221.66 266.209C4219.32 267.211 4216.65 267.712 4213.67 267.712C4210.83 267.712 4208.27 267.277 4206 266.407C4203.76 265.51 4201.85 264.205 4200.27 262.491C4198.71 260.777 4197.51 258.655 4196.67 256.124C4195.85 253.592 4195.44 250.679 4195.44 247.383C4195.44 244.298 4195.88 241.49 4196.75 238.958C4197.62 236.401 4198.87 234.212 4200.5 232.393C4202.14 230.547 4204.13 229.124 4206.47 228.122C4208.82 227.093 4211.48 226.579 4214.46 226.579C4217.31 226.579 4219.86 227.027 4222.1 227.924C4224.36 228.794 4226.28 230.086 4227.83 231.8C4229.41 233.487 4230.61 235.597 4231.43 238.128C4232.27 240.659 4232.7 243.56 4232.7 246.829ZM4225.66 247.146C4225.66 244.693 4225.38 242.558 4224.83 240.738C4224.3 238.893 4223.53 237.363 4222.53 236.15C4221.53 234.911 4220.3 233.988 4218.85 233.382C4217.43 232.749 4215.83 232.433 4214.07 232.433C4212.01 232.433 4210.25 232.841 4208.77 233.659C4207.32 234.45 4206.12 235.518 4205.17 236.862C4204.25 238.207 4203.56 239.776 4203.11 241.569C4202.69 243.335 4202.48 245.194 4202.48 247.146C4202.48 249.598 4202.74 251.747 4203.27 253.592C4203.82 255.438 4204.6 256.98 4205.6 258.22C4206.61 259.433 4207.82 260.355 4209.24 260.988C4210.67 261.595 4212.28 261.898 4214.07 261.898C4216.12 261.898 4217.88 261.502 4219.33 260.711C4220.81 259.894 4222 258.813 4222.93 257.468C4223.88 256.124 4224.56 254.568 4224.98 252.801C4225.43 251.008 4225.66 249.123 4225.66 247.146ZM4276.76 255.412C4276.76 257.231 4276.37 258.892 4275.61 260.395C4274.84 261.898 4273.66 263.19 4272.05 264.271C4270.44 265.326 4268.4 266.156 4265.92 266.763C4263.47 267.343 4260.54 267.633 4257.14 267.633C4254.9 267.633 4252.51 267.541 4249.98 267.356C4247.45 267.198 4245.01 266.974 4242.66 266.684V227.489C4245.14 227.199 4247.65 226.975 4250.18 226.816C4252.74 226.658 4255.49 226.579 4258.44 226.579C4263.8 226.579 4267.86 227.462 4270.63 229.229C4273.42 230.969 4274.82 233.487 4274.82 236.783C4274.82 239.024 4274.17 240.949 4272.88 242.558C4271.59 244.166 4269.64 245.353 4267.03 246.117C4268.29 246.328 4269.51 246.684 4270.67 247.185C4271.85 247.66 4272.89 248.292 4273.79 249.083C4274.69 249.848 4275.4 250.758 4275.93 251.812C4276.48 252.867 4276.76 254.067 4276.76 255.412ZM4267.78 238.167C4267.78 237.245 4267.59 236.414 4267.22 235.676C4266.86 234.938 4266.26 234.305 4265.44 233.777C4264.65 233.25 4263.6 232.854 4262.28 232.591C4260.99 232.301 4259.42 232.156 4257.57 232.156C4255.91 232.156 4254.46 232.195 4253.22 232.274C4251.98 232.327 4250.76 232.433 4249.55 232.591V244.061H4257.53C4264.36 244.061 4267.78 242.096 4267.78 238.167ZM4269.48 255.57C4269.48 253.513 4268.54 251.971 4266.67 250.942C4264.83 249.888 4261.94 249.36 4258.01 249.36H4249.55V261.502C4250.84 261.713 4252.12 261.858 4253.38 261.938C4254.65 262.017 4256.1 262.056 4257.73 262.056C4260.08 262.056 4262 261.898 4263.51 261.582C4265.04 261.265 4266.24 260.817 4267.11 260.237C4268 259.657 4268.62 258.971 4268.96 258.18C4269.31 257.389 4269.48 256.519 4269.48 255.57Z" fill="white"/>
</g>
<defs>
<clipPath id="clip0_67_154">
<rect width="4500" height="400" fill="white"/>
</clipPath>
</defs>
</svg>
